<svg width="1024" height="1024" viewBox="0 0 1024 1024" fill="none" xmlns="http://www.w3.org/2000/svg">
<path d="M47.9334 167.194H46.9453V416.031H980.193V355.313C980.234 354.309 980.49 353.367 980.49 352.353V177.009C980.49 175.995 980.234 175.053 980.193 174.049V167.194H979.502C974.7 133.693 946.171 107.853 911.34 107.853H116.096C81.2697 107.858 52.736 133.693 47.9334 167.194Z" fill="#42A5F5"/>
<path d="M979.507 856.806H980.495V404.915H47.2422V465.628C47.2013 466.632 46.9453 467.574 46.9453 468.582V846.986C46.9453 848 47.2013 848.942 47.2422 849.94V856.796H47.9334C52.736 890.296 81.2646 916.137 116.096 916.137H911.34C946.171 916.142 974.705 890.307 979.507 856.806Z" fill="#E6E4E2"/>
<path d="M341.337 202.727H371.664V290.724C371.622 298.969 369.654 306.178 365.76 312.351C361.866 318.482 356.48 323.247 349.602 326.644C342.766 330.041 334.853 331.74 325.863 331.74C317.908 331.74 310.679 330.352 304.174 327.576C297.711 324.801 292.553 320.492 288.7 314.65C284.889 308.809 283.004 301.33 283.045 292.216H313.683C313.807 295.489 314.428 298.285 315.547 300.605C316.707 302.884 318.302 304.603 320.332 305.763C322.362 306.924 324.786 307.504 327.603 307.504C330.545 307.504 333.03 306.882 335.06 305.639C337.09 304.355 338.623 302.47 339.659 299.984C340.736 297.498 341.296 294.412 341.337 290.724V202.727ZM467.973 202.727H498.672V284.821C498.672 294.308 496.414 302.573 491.899 309.616C487.383 316.618 481.085 322.045 473.006 325.898C464.928 329.71 455.544 331.616 444.855 331.616C434.042 331.616 424.596 329.71 416.517 325.898C408.438 322.045 402.161 316.618 397.687 309.616C393.212 302.573 390.975 294.308 390.975 284.821V202.727H421.737V282.148C421.737 286.54 422.69 290.455 424.596 293.894C426.543 297.333 429.256 300.025 432.737 301.973C436.217 303.92 440.256 304.893 444.855 304.893C449.454 304.893 453.472 303.92 456.911 301.973C460.391 300.025 463.105 297.333 465.052 293.894C466.999 290.455 467.973 286.54 467.973 282.148V202.727ZM626.271 202.727V330H600.17L549.522 256.545H548.714V330H517.953V202.727H544.426L594.515 276.058H595.572V202.727H626.271ZM645.614 330V202.727H734.357V227.71H676.376V253.81H729.82V278.855H676.376V305.018H734.357V330H645.614Z" fill="white"/>
<path d="M278.974 542.818V761H226.347V592.037H225.068L176.276 621.866V576.27L230.075 542.818H278.974ZM432.357 631.881V671.938H331.363V631.881H432.357ZM550.823 763.983C534.203 763.983 519.466 761.142 506.611 755.46C493.827 749.707 483.742 741.788 476.355 731.703C468.969 721.618 465.205 710.006 465.063 696.866H518.117C518.33 701.625 519.857 705.851 522.698 709.544C525.539 713.166 529.409 716.007 534.31 718.067C539.211 720.126 544.786 721.156 551.036 721.156C557.286 721.156 562.79 720.055 567.549 717.854C572.378 715.581 576.142 712.491 578.841 708.585C581.54 704.608 582.854 700.062 582.783 694.949C582.854 689.835 581.398 685.29 578.415 681.312C575.432 677.335 571.206 674.246 565.738 672.044C560.34 669.842 553.948 668.741 546.561 668.741H525.361V631.241H546.561C553.025 631.241 558.706 630.176 563.607 628.045C568.578 625.915 572.449 622.932 575.219 619.097C577.989 615.19 579.338 610.716 579.267 605.673C579.338 600.773 578.167 596.476 575.752 592.783C573.408 589.018 570.105 586.107 565.844 584.047C561.654 581.987 556.789 580.957 551.249 580.957C545.425 580.957 540.134 581.987 535.375 584.047C530.688 586.107 526.959 589.018 524.189 592.783C521.419 596.547 519.963 600.915 519.821 605.886H469.431C469.573 592.889 473.195 581.455 480.297 571.582C487.4 561.639 497.059 553.862 509.275 548.251C521.561 542.641 535.553 539.835 551.249 539.835C566.874 539.835 580.617 542.57 592.478 548.038C604.338 553.507 613.571 560.964 620.176 570.411C626.782 579.786 630.084 590.403 630.084 602.264C630.155 614.551 626.142 624.672 618.046 632.626C610.02 640.581 599.686 645.482 587.044 647.328V649.033C603.948 651.021 616.696 656.49 625.29 665.439C633.955 674.388 638.252 685.574 638.181 698.997C638.181 711.639 634.452 722.861 626.995 732.662C619.608 742.392 609.31 750.062 596.1 755.673C582.961 761.213 567.868 763.983 550.823 763.983ZM758.165 766.327C739.131 766.327 722.724 761.817 708.946 752.797C695.168 743.706 684.55 730.673 677.092 713.699C669.635 696.653 665.942 676.163 666.013 652.229C666.084 628.294 669.813 607.982 677.199 591.291C684.656 574.53 695.239 561.781 708.946 553.045C722.724 544.239 739.131 539.835 758.165 539.835C777.199 539.835 793.605 544.239 807.384 553.045C821.233 561.781 831.886 574.53 839.344 591.291C846.801 608.053 850.494 628.365 850.423 652.229C850.423 676.234 846.695 696.76 839.237 713.805C831.78 730.851 821.162 743.884 807.384 752.903C793.676 761.852 777.27 766.327 758.165 766.327ZM758.165 723.18C769.528 723.18 778.726 717.392 785.757 705.815C792.788 694.168 796.268 676.305 796.197 652.229C796.197 636.462 794.599 623.464 791.403 613.237C788.207 602.939 783.768 595.268 778.087 590.226C772.405 585.183 765.764 582.662 758.165 582.662C746.872 582.662 737.746 588.379 730.786 599.814C723.825 611.178 720.31 628.649 720.239 652.229C720.168 668.209 721.695 681.455 724.82 691.966C728.016 702.477 732.49 710.325 738.243 715.51C743.996 720.624 750.636 723.18 758.165 723.18Z" fill="#5B5144"/>
</svg>
