<?xml version="1.0" encoding="iso-8859-1"?>
<!-- Uploaded to: SVG Repo, www.svgrepo.com, Generator: SVG Repo Mixer Tools -->
<svg version="1.1" id="Layer_1" xmlns="http://www.w3.org/2000/svg" xmlns:xlink="http://www.w3.org/1999/xlink" 
	 viewBox="0 0 512 512" xml:space="preserve">
<polyline style="fill:#FFF5CC;" points="344.282,29.668 436.755,29.668 436.755,512 75.245,512 75.245,29.668 167.05,29.668 "/>
<polygon style="fill:#FFFFFF;" points="340.863,67.583 396.574,67.583 396.574,470.928 115.426,470.928 115.426,67.583 
	171.136,67.583 "/>
<g>
	<rect x="209.378" y="131.312" style="fill:#FFD422;" width="146.714" height="35.478"/>
	<rect x="209.378" y="208.921" style="fill:#FFD422;" width="146.714" height="35.478"/>
	<rect x="211.103" y="286.52" style="fill:#FFD422;" width="146.714" height="35.478"/>
	<rect x="211.103" y="370.687" style="fill:#FFD422;" width="146.714" height="35.478"/>
</g>
<g>
	<path style="fill:#B6E892;" d="M156.808,165.484c-2.044,0-4.086-0.779-5.646-2.339l-15.109-15.109
		c-3.118-3.118-3.118-8.173,0-11.29c3.119-3.118,8.173-3.118,11.291,0l9.464,9.464l20.544-20.544c3.12-3.118,8.174-3.118,11.291,0
		c3.118,3.118,3.118,8.173,0,11.29l-26.19,26.189C160.894,164.705,158.851,165.484,156.808,165.484z"/>
	<path style="fill:#B6E892;" d="M156.808,243.089L156.808,243.089c-2.117,0-4.147-0.841-5.646-2.339l-15.109-15.11
		c-3.118-3.118-3.118-8.173,0.001-11.29c3.117-3.119,8.172-3.118,11.29,0l9.464,9.464l20.544-20.544
		c3.119-3.118,8.173-3.118,11.291,0s3.118,8.173,0,11.29l-26.19,26.19C160.955,242.248,158.925,243.089,156.808,243.089z"/>
	<path style="fill:#B6E892;" d="M156.808,321.001L156.808,321.001c-2.117,0-4.147-0.841-5.646-2.339l-15.109-15.11
		c-3.118-3.118-3.118-8.173,0.001-11.29c3.117-3.119,8.172-3.118,11.29,0l9.464,9.464l20.544-20.544
		c3.119-3.118,8.173-3.118,11.291,0c3.118,3.118,3.118,8.173,0,11.29l-26.19,26.19C160.955,320.16,158.925,321.001,156.808,321.001z
		"/>
	<path style="fill:#B6E892;" d="M156.808,409.502L156.808,409.502c-2.117,0-4.147-0.841-5.646-2.339l-15.109-15.11
		c-3.118-3.118-3.118-8.173,0.001-11.29c3.117-3.118,8.172-3.118,11.29,0l9.464,9.464l20.544-20.544
		c3.119-3.118,8.173-3.118,11.291,0c3.118,3.118,3.118,8.173,0,11.29l-26.19,26.19C160.955,408.661,158.925,409.502,156.808,409.502
		z"/>
</g>
<path style="fill:#4E8FE3;" d="M331.905,86.456H180.094c-4.948,0-8.958-4.011-8.958-8.958V8.958c0-4.948,4.011-8.958,8.958-8.958
	h151.811c4.948,0,8.958,4.011,8.958,8.958v20.709v47.83C340.863,82.445,336.852,86.456,331.905,86.456z"/>
<polygon style="fill:#FFD422;" points="344.282,491.578 436.755,491.578 436.755,512 75.245,512 75.245,491.578 167.05,491.578 "/>
<path style="fill:#315591;" d="M171.136,41.705v35.792c0,4.948,4.011,8.958,8.958,8.958h151.81c4.948,0,8.958-4.011,8.958-8.958
	V41.705H171.136z"/>
</svg>