<svg width="800" height="800" viewBox="0 0 800 800" fill="none" xmlns="http://www.w3.org/2000/svg">
<g clip-path="url(#clip0_501_88)">
<rect x="72" y="74" width="657" height="492" rx="60" fill="#686B6E"/>
<path d="M733.667 396.667V426.333C733.667 545 704 574.333 585.667 574.333H215C96.6667 574.333 67 544.667 67 426.333V215C67 96.6667 96.6667 67 215 67H267" stroke="#292D32" stroke-width="50" stroke-linecap="round" stroke-linejoin="round"/>
<path opacity="0.4" d="M400 574.007V733.34" stroke="#292D32" stroke-width="50" stroke-linecap="round" stroke-linejoin="round"/>
<path opacity="0.4" d="M66.667 433.333H733.334" stroke="#292D32" stroke-width="50" stroke-linecap="round" stroke-linejoin="round"/>
<path d="M250 733.333H550" stroke="#292D32" stroke-width="50" stroke-linecap="round" stroke-linejoin="round"/>
<path d="M448.061 96.9441C448.06 96.943 448.059 96.9419 448.058 96.9408L448.06 96.9436L448.061 96.9441ZM433.5 9.5C416.783 9.5 401.345 15.3752 389.157 25.0867C372.795 38.0752 362.5 58.1684 362.5 80.5C362.5 93.7774 366.21 106.397 372.791 117.103C385.063 137.669 407.615 151.5 433.5 151.5C451.316 151.5 467.677 144.979 480.164 133.811C485.706 129.13 490.498 123.433 494.237 117.058C500.8 106.362 504.5 93.7588 504.5 80.5C504.5 41.2752 472.725 9.5 433.5 9.5Z" fill="#90E0EF" stroke="#1990A7" stroke-width="25"/>
<path opacity="0.4" d="M603.937 39.4387V195.091C603.937 214.115 588.372 229.68 569.348 229.68H379.106V119.34C391.732 134.387 411.102 143.726 432.548 143.207C450.015 142.861 465.753 136.116 477.513 124.874C482.875 120.378 487.372 114.67 490.83 108.444C497.057 97.8946 500.515 85.4421 500.169 72.4711C499.65 52.2363 490.657 34.4233 476.649 22.144H586.643C596.155 22.144 603.937 29.9267 603.937 39.4387Z" fill="#90E0EF" stroke="#1990A7" stroke-width="33.3333"/>
<path d="M725 229.68V281.565C725 310.274 701.825 333.449 673.116 333.449H655.821C655.821 314.424 640.256 298.859 621.232 298.859C602.208 298.859 586.643 314.424 586.643 333.449H517.464C517.464 314.424 501.899 298.859 482.875 298.859C463.85 298.859 448.285 314.424 448.285 333.449H430.991C402.281 333.449 379.106 310.274 379.106 281.565V229.68H569.348C588.372 229.68 603.937 214.115 603.937 195.091V74.0283H635.76C648.212 74.0283 659.626 80.7734 665.852 91.4961L695.426 143.207H673.116C663.604 143.207 655.821 150.99 655.821 160.502V212.386C655.821 221.898 663.604 229.68 673.116 229.68H725Z" fill="#90E0EF" stroke="#1990A7" stroke-width="33.3333"/>
<path opacity="0.4" d="M482.875 368.038C501.978 368.038 517.464 352.552 517.464 333.449C517.464 314.345 501.978 298.859 482.875 298.859C463.771 298.859 448.285 314.345 448.285 333.449C448.285 352.552 463.771 368.038 482.875 368.038Z" fill="#90E0EF" stroke="#1990A7" stroke-width="33.3333"/>
<path opacity="0.4" d="M621.232 368.038C640.336 368.038 655.821 352.552 655.821 333.449C655.821 314.345 640.336 298.859 621.232 298.859C602.128 298.859 586.643 314.345 586.643 333.449C586.643 352.552 602.128 368.038 621.232 368.038Z" fill="#90E0EF" stroke="#1990A7" stroke-width="33.3333"/>
<path opacity="0.4" d="M725 204.257V229.68H673.116C663.604 229.68 655.821 221.897 655.821 212.385V160.501C655.821 150.989 663.604 143.207 673.116 143.207H695.426L720.503 187.135C723.444 192.323 725 198.204 725 204.257Z" fill="#90E0EF" stroke="#1990A7" stroke-width="33.3333"/>
</g>
<defs>
<clipPath id="clip0_501_88">
<rect width="800" height="800" fill="white"/>
</clipPath>
</defs>
</svg>
