<svg width="800" height="800" viewBox="0 0 800 800" fill="none" xmlns="http://www.w3.org/2000/svg">
<rect x="72" y="74" width="657" height="492" rx="60" fill="#686B6E"/>
<path d="M733.667 396.667V426.333C733.667 545 704 574.333 585.667 574.333H215C96.6667 574.333 67 544.667 67 426.333V215C67 96.6667 96.6667 67 215 67H267" stroke="#292D32" stroke-width="50" stroke-linecap="round" stroke-linejoin="round"/>
<path opacity="0.4" d="M400 574.007V733.34" stroke="#292D32" stroke-width="50" stroke-linecap="round" stroke-linejoin="round"/>
<path opacity="0.4" d="M66.667 433.333H733.334" stroke="#292D32" stroke-width="50" stroke-linecap="round" stroke-linejoin="round"/>
<path d="M250 733.333H550" stroke="#292D32" stroke-width="50" stroke-linecap="round" stroke-linejoin="round"/>
<path fill-rule="evenodd" clip-rule="evenodd" d="M720.214 156.5C699.041 156.5 681.857 173.684 681.857 194.857C681.857 216.03 699.041 233.214 720.214 233.214V284.357C720.214 298.485 708.771 309.928 694.642 309.928C632.721 309.928 475.278 309.928 413.357 309.928C399.228 309.928 387.785 298.485 387.785 284.357C387.785 262.046 387.785 233.214 387.785 233.214C408.958 233.214 426.142 216.03 426.142 194.857C426.142 173.684 408.958 156.5 387.785 156.5V105.357C387.785 91.2289 399.228 79.7856 413.357 79.7856C475.278 79.7856 632.721 79.7856 694.642 79.7856C708.771 79.7856 720.214 91.2289 720.214 105.357C720.214 127.668 720.214 156.5 720.214 156.5Z" fill="#90E0EF"/>
<path fill-rule="evenodd" clip-rule="evenodd" d="M413.357 322.714C392.171 322.714 375 305.543 375 284.357V233.214C375 226.157 380.728 220.429 387.786 220.429C401.901 220.429 413.357 208.973 413.357 194.857C413.357 180.742 401.901 169.286 387.786 169.286C380.728 169.286 375 163.558 375 156.5V105.357C375 84.1712 392.171 67 413.357 67H694.643C715.829 67 733 84.1712 733 105.357V156.5C733 163.558 727.272 169.286 720.214 169.286C706.099 169.286 694.643 180.742 694.643 194.857C694.643 208.973 706.099 220.429 720.214 220.429C727.272 220.429 733 226.157 733 233.214V284.357C733 305.543 715.829 322.714 694.643 322.714H413.357ZM413.357 297.143H694.643C701.701 297.143 707.429 291.415 707.429 284.357V244.389C685.386 238.699 669.071 218.677 669.071 194.857C669.071 171.037 685.386 151.015 707.429 145.325V105.357C707.429 98.2994 701.701 92.5714 694.643 92.5714H413.357C406.299 92.5714 400.571 98.2994 400.571 105.357V145.325C422.614 151.015 438.929 171.037 438.929 194.857C438.929 218.677 422.614 238.699 400.571 244.389V284.357C400.571 291.415 406.299 297.143 413.357 297.143ZM605.143 258.786V271.571C605.143 278.629 610.871 284.357 617.929 284.357C624.986 284.357 630.714 278.629 630.714 271.571V258.786C630.714 251.728 624.986 246 617.929 246C610.871 246 605.143 251.728 605.143 258.786ZM554 220.429C561.058 220.429 566.786 226.157 566.786 233.214C566.786 240.272 561.058 246 554 246C546.942 246 541.214 240.272 541.214 233.214C541.214 226.157 546.942 220.429 554 220.429ZM486.325 242.254L563.04 165.54C568.026 160.553 568.026 152.447 563.04 147.46C558.053 142.474 549.947 142.474 544.96 147.46L468.246 224.175C463.26 229.161 463.26 237.267 468.246 242.254C473.233 247.24 481.339 247.24 486.325 242.254ZM605.143 182.071V207.643C605.143 214.701 610.871 220.429 617.929 220.429C624.986 220.429 630.714 214.701 630.714 207.643V182.071C630.714 175.014 624.986 169.286 617.929 169.286C610.871 169.286 605.143 175.014 605.143 182.071ZM477.286 143.714C484.343 143.714 490.071 149.442 490.071 156.5C490.071 163.558 484.343 169.286 477.286 169.286C470.228 169.286 464.5 163.558 464.5 156.5C464.5 149.442 470.228 143.714 477.286 143.714ZM605.143 118.143V130.929C605.143 137.986 610.871 143.714 617.929 143.714C624.986 143.714 630.714 137.986 630.714 130.929V118.143C630.714 111.085 624.986 105.357 617.929 105.357C610.871 105.357 605.143 111.085 605.143 118.143Z" fill="#1990A7"/>
</svg>
