<?xml version="1.0" encoding="utf-8"?><!-- Uploaded to: SVG Repo, www.svgrepo.com, Generator: SVG Repo Mixer Tools -->
<svg width="800px" height="800px" viewBox="0 0 400 400" fill="none" xmlns="http://www.w3.org/2000/svg">
<path d="M182.612 117.851C199.137 91.547 227.139 131.051 202.546 143.507C179.734 155.057 178.558 124.985 185.935 111.54" stroke="#000000" stroke-opacity="0.9" stroke-width="16" stroke-linecap="round" stroke-linejoin="round"/>
<path d="M171.774 153.634C178.728 168.677 208.294 159.712 220.11 152.839" stroke="#000000" stroke-opacity="0.9" stroke-width="16" stroke-linecap="round" stroke-linejoin="round"/>
<path d="M183.015 205.109C187.678 194.856 192.267 187.465 196.781 182.935C200 190.328 202.53 197.157 204.373 203.423" stroke="#000000" stroke-opacity="0.9" stroke-width="16" stroke-linecap="round" stroke-linejoin="round"/>
<path d="M196.503 165.204C196.503 171.952 196.503 178.69 196.503 185.438" stroke="#000000" stroke-opacity="0.9" stroke-width="16" stroke-linecap="round" stroke-linejoin="round"/>
<path opacity="0.503384" d="M47 210.139C149.163 210.637 251.326 204.547 353.876 204.547" stroke="#000000" stroke-opacity="0.9" stroke-width="16" stroke-linecap="round" stroke-linejoin="round"/>
<path opacity="0.503906" d="M267.459 212.874C280.736 205.811 295.698 223.882 284.469 237.692C281.337 241.543 277.209 243.737 272.359 242.346C264.747 240.16 255.573 229.465 263.83 218.966" stroke="#000000" stroke-opacity="0.9" stroke-width="16" stroke-linecap="round" stroke-linejoin="round"/>
<path opacity="0.501093" d="M256.08 287.844C260.934 257.406 284.466 255.357 284.466 290.841" stroke="#000000" stroke-opacity="0.9" stroke-width="16" stroke-linecap="round" stroke-linejoin="round"/>
<path opacity="0.501093" d="M218.274 219.563C232.083 212.752 247.643 230.178 235.964 243.495C232.707 247.208 228.414 249.324 223.371 247.982C215.454 245.875 205.913 235.561 214.501 225.438" stroke="#000000" stroke-opacity="0.9" stroke-width="16" stroke-linecap="round" stroke-linejoin="round"/>
<path opacity="0.501093" d="M211.117 286.719C215.971 256.282 239.504 254.233 239.504 289.717" stroke="#000000" stroke-opacity="0.9" stroke-width="16" stroke-linecap="round" stroke-linejoin="round"/>
<path opacity="0.501093" d="M166.014 220.686C178.761 213.876 193.124 231.301 182.344 244.618C179.337 248.332 175.375 250.447 170.719 249.106C163.412 246.999 154.604 236.685 162.531 226.562" stroke="#000000" stroke-opacity="0.9" stroke-width="16" stroke-linecap="round" stroke-linejoin="round"/>
<path opacity="0.501093" d="M158.284 287.844C163.138 257.406 186.67 255.357 186.67 290.841" stroke="#000000" stroke-opacity="0.9" stroke-width="16" stroke-linecap="round" stroke-linejoin="round"/>
<path opacity="0.501093" d="M122.451 220.686C135.729 213.876 150.691 231.301 139.461 244.618C136.329 248.332 132.202 250.447 127.352 249.106C119.74 246.999 110.566 236.685 118.823 226.562" stroke="#000000" stroke-opacity="0.9" stroke-width="16" stroke-linecap="round" stroke-linejoin="round"/>
<path opacity="0.501093" d="M143.672 286.719C138.071 256.282 110.918 254.233 110.918 289.717" stroke="#000000" stroke-opacity="0.9" stroke-width="16" stroke-linecap="round" stroke-linejoin="round"/>
<path opacity="0.501093" d="M66.624 222.802C83.2091 206.142 102.295 237.817 82.2103 246.781C66.4923 253.795 56.9621 236.186 66.624 225.837" stroke="#000000" stroke-opacity="0.9" stroke-width="16" stroke-linecap="round" stroke-linejoin="round"/>
<path opacity="0.501093" d="M59.3657 287.844C64.4062 257.406 88.8439 255.357 88.8439 290.841" stroke="#000000" stroke-opacity="0.9" stroke-width="16" stroke-linecap="round" stroke-linejoin="round"/>
<path opacity="0.501093" d="M312.801 222.802C329.386 206.142 348.471 237.817 328.387 246.781C312.669 253.795 303.139 236.186 312.801 225.837" stroke="#000000" stroke-opacity="0.9" stroke-width="16" stroke-linecap="round" stroke-linejoin="round"/>
<path opacity="0.501093" d="M305.54 287.844C310.767 257.406 336.11 255.357 336.11 290.841" stroke="#000000" stroke-opacity="0.9" stroke-width="16" stroke-linecap="round" stroke-linejoin="round"/>
</svg>